<svg id="레이어_1" data-name="레이어 1" xmlns="http://www.w3.org/2000/svg" viewBox="0 0 230 66"><defs><style>.cls-1{fill:#1982b4;}.cls-2{fill:#1a83b5;}.cls-3{fill:#1e85b6;}.cls-4{fill:#2287b7;}.cls-5{fill:#1a83b4;}.cls-6{fill:#1f85b6;}.cls-7{fill:#1f86b6;}.cls-8{fill:#1c84b5;}.cls-9{fill:#1882b4;}.cls-10{fill:#2086b6;}.cls-11{fill:#2489b8;}.cls-12{fill:#2388b7;}.cls-13{fill:#1b83b5;}.cls-14{fill:#1580b3;}.cls-15{fill:#298bb9;}.cls-16{fill:#1d84b5;}.cls-17{fill:#288ab9;}</style></defs><path class="cls-1" d="M192,403c5.33-4.74,9.52-10.44,13.61-16.22.55-.78,1.1-1.84.41-2.73s-1.88-.46-2.78-.19c-2.46.74-4.26,2.5-6.1,4.19-.76.7-1.75,1.22-2.66.47s-.51-1.81-.1-2.75c1.74-3.93,11-8,15.16-6.66,2.49.8,2.83,2.64,2.19,4.76a19,19,0,0,1-4.9,8.55c-2.87,2.66-3.44,5.42-1.91,8.89a28,28,0,0,1,1.15,3.78c.36,1.31.76,2.78-.87,3.43s-2.46-.64-3.11-1.8c-.89-1.55-1.62-3.2-2.5-5-2.4,1.89-4.3,4.38-7.59,4.28Z" transform="translate(-192 -364)"/><path class="cls-2" d="M231,430c-1.34-4.19,2.8-12.75,6.78-13.92,1-.29,2.15-.38,2.77.53s-.09,1.87-.68,2.69c-1.23,1.7-3.36,2.75-3.83,5.45,4.94.48,9.37-2.15,14.1-1.79,1.33.1,3.37-1.09,3.7,1.13.3,2-1.79,2.09-3.14,2.5-4.19,1.28-8.82,1-12.7,3.41Z" transform="translate(-192 -364)"/><path class="cls-3" d="M422,411c-10.15-.55-20.22-.34-30.09,2.51-1.25.36-3.16,1.25-3.79-.87-.54-1.85.92-2.63,2.48-3.05,10.35-2.78,20.79-3.88,31.4-1.59Z" transform="translate(-192 -364)"/><path class="cls-4" d="M212,364c.8,4.71-2.53,8.19-3.74,12.3-.21.72-1.31,1-2.16.67-1.25-.43-1.07-1.57-.92-2.48.6-3.73,2.23-7.11,3.82-10.49Z" transform="translate(-192 -364)"/><path class="cls-5" d="M250.25,404.3c-4.84-.87-8.64,1.08-12.62,2.06-1.57.39-3.64,1.29-4.32-.8-.73-2.26,1.32-3.07,3.15-3.6,8-2.35,16-4.39,24.42-4,1.2.06,3-.52,3,1.56,0,1.76-1.39,2.3-2.77,2.09-4.16-.62-5.55,1.67-7,5.14-1.79,4.24-4.65,8-7.1,12-.6,1-1.36,2.14-2.75,1.39s-.84-1.86-.59-3.06C244.64,412.41,248.58,409.27,250.25,404.3Z" transform="translate(-192 -364)"/><path class="cls-6" d="M246,383.26c-2.62-.74-4.4.74-6.38,1.36-1.19.37-2.73,1.25-3.39-.56-.56-1.53.68-2.45,1.91-3.06a15.49,15.49,0,0,1,8.59-2c3,.32,4.85,1.91,3.71,5-1,2.78,0,3.06,2.33,3,3.14-.08,6.31-.25,9.38.84,1,.35,2,.59,1.9,1.83s-1.29,1.32-2.3,1.32c-2,0-4,0-6-.08-5.74-.23-10.81,1.26-14.9,5.52a10.56,10.56,0,0,1-2.73,2.12c-.93.48-2.08,1.63-3.09.26-.84-1.13-.15-2.22.72-3.07,2.11-2.11,4.28-4.17,6.4-6.28C243.91,387.72,245.5,385.91,246,383.26Z" transform="translate(-192 -364)"/><path class="cls-7" d="M383.25,393.52c-3.86,1.28-6.75,2.4-9.73,3.16-1.24.31-3.23,1.05-3.69-1.16-.4-1.89,1-2.51,2.63-2.89,1.76-.43,3.5-1,5.23-1.55,4.26-1.43,8.46-2.95,10.95-7.15.87-1.45,2.18-2.13,3.73-.87s.8,2.58,0,3.53c-2.41,2.85-3.75,6.26-5.39,9.5-1.81,3.55-3.42,7.18-3.15,11.34.09,1.33.11,3-1.69,3-2,.1-2.22-1.62-2.32-3.15C379.52,402.74,380.94,398.52,383.25,393.52Z" transform="translate(-192 -364)"/><path class="cls-8" d="M400.87,381.11c7.22,0,1.1,3.68,1.71,5.69,3.17,1,6.26-1.37,9.55-.79.8.14,1.81,0,2,1,.29,1.27-.64,1.61-1.68,1.89-3.67,1-7.34,2-11,3.16-2,.64-4,2.07-3.2,4.25.68,1.78,2.89.63,4.41.24,2.08-.52,4.14-1.14,6.2-1.72.77-.22,1.61-.73,2.15.33s-.26,1.62-.92,2a30.76,30.76,0,0,1-13.06,4.42c-3.1.24-4.3-1.64-3.48-4.92C395.05,390.93,398,386,401,381Z" transform="translate(-192 -364)"/><path class="cls-9" d="M298.05,424c.61-3.78,2.32-7.36,4.13-10.9,1.13-2.21,2.47-4.31,3.55-6.54.94-1.95.06-2.91-2-2.55a19.25,19.25,0,0,0-7.72,3.28c-1.18.83-2.54,1.25-3.41-.29-.67-1.21.13-2.32,1.11-3a23,23,0,0,1,14.95-4.29c2.32.15,3.37,1.37,2.64,3.64a41.32,41.32,0,0,1-2.37,6c-2.53,5-5.52,9.78-7.22,15.19-.37,1.17-.82,2.76-2.67,2.24C297.73,426.41,298.26,425.15,298.05,424Z" transform="translate(-192 -364)"/><path class="cls-10" d="M333.05,387.83c3.92.25,7.38.14,10.71,1.1,1.27.36,3,.33,2.58,2.16-.31,1.52-1.85,1.68-3.26,1.57-3.3-.28-6.6-.53-9.9-.84-5.25-.48-9.41,1.15-12.15,5.91-.87,1.52-2.07,3.64-4.2,2.09-1.87-1.37-.12-3.14.66-4.33,3.84-5.85,9.71-9.44,15.36-13.21,1.13-.76,3.15-.92,3.63.25C337.53,385.05,334.43,385.47,333.05,387.83Z" transform="translate(-192 -364)"/><path class="cls-1" d="M224.6,391.59c-3.2,1.39-6.33,3-9.61,4.09-1.45.5-3.83,2.07-4.55-.76-.52-2,1.45-2.51,3.13-3.07a58.06,58.06,0,0,0,7.34-3.07c3.86-1.9,7.8-3.72,9.85-8,.65-1.36,2-2.7,3.61-1.8,1.84,1.05.66,2.72-.16,3.85-3.2,4.45-4.28,9.62-5.42,14.81-.37,1.7-.91,4.11-3.33,3.42s-1-2.71-.64-4.24.63-2.92.94-4.38l0-1.26Z" transform="translate(-192 -364)"/><path class="cls-1" d="M300.22,394.28c.2-.72.5-1.68.74-2.64.6-2.41-.53-3.1-2.64-2.43s-4,1.71-6,2.27c-1.4.38-3.45,1.68-4.14-.8-.51-1.84,1.17-2.47,2.64-3,1.72-.58,3.45-1.15,5.13-1.84,4.12-1.69,8.42-3.05,10.45-7.71.66-1.52,2.3-3,4-2,2,1.12.76,2.93-.13,4.27-3.06,4.64-4.27,10-6.08,15.12-.47,1.34-1.11,2.59-2.81,2C300,397,300.2,395.69,300.22,394.28Z" transform="translate(-192 -364)"/><path class="cls-11" d="M339.54,407.71c-7.83-.56-14.28,1.11-20.77,2.49-1.47.32-3.18,1-3.64-1.11-.4-1.84,1.06-2.67,2.63-3,9.42-2,18.84-4.19,28.58-2.17,1.29.26,2.87.08,2.64,2.08-.21,1.85-1.7,1.72-3,1.72Z" transform="translate(-192 -364)"/><path class="cls-12" d="M357,403c2.81-2.81,3.84-6.72,6.06-9.88a31.11,31.11,0,0,1,3-3.92,2,2,0,0,1,2.68-.47c1.3.94.75,2,.08,3-2.48,3.87-5.3,7.57-6.74,12a4.25,4.25,0,0,0,1,.4c1.92.19,4.44-2.93,5.53-.13.92,2.37-2.39,3.15-4.2,4-2.28,1.06-4.3,4.27-7,2.62-3.21-2,.66-5.14-.32-7.74Z" transform="translate(-192 -364)"/><path class="cls-13" d="M276.54,398.06c-1.68,0-3-1.46-2.12-4.09,1.66-4.78,5.05-8.48,8.37-12.17a2.19,2.19,0,0,1,2.71-.58,1.61,1.61,0,0,1,.56,2.52c-1.39,2,.48,3.4.65,5.09C287.06,392.44,281.57,398,276.54,398.06Z" transform="translate(-192 -364)"/><path class="cls-14" d="M222.07,412.72c-.74,4.15-2.78,7.51-6.69,9.25-2.88,1.29-4.79-.18-4.29-3.22.92-5.58,4.32-10,7.88-14.17a2.5,2.5,0,0,1,3.22-.47c1.45.89.59,2.21-.13,3C220.21,409,222.5,410.83,222.07,412.72Z" transform="translate(-192 -364)"/><path class="cls-12" d="M375.61,378.55a2.12,2.12,0,0,1-2.26,2,47.54,47.54,0,0,0-20.66,4.13c-.81.37-2.06.64-2.64-.51a2.13,2.13,0,0,1,.94-3,36.93,36.93,0,0,1,22.89-4.37A2,2,0,0,1,375.61,378.55Z" transform="translate(-192 -364)"/><path class="cls-5" d="M310,393.78c2-6.66,5.75-12.95,9.81-19a2.3,2.3,0,0,1,3.49-.7c1.22.91.75,2.12.11,3.11-3.77,5.86-7.67,11.64-10.16,18.22-.45,1.19-1.27,2.05-2.68,1.46S310,395.15,310,393.78Z" transform="translate(-192 -364)"/><path class="cls-15" d="M357.05,402.9c-3.58,1.71-5.33.52-4.94-3.37A29.74,29.74,0,0,1,356,387.38c.89-1.51,2.09-3.6,4.16-2.36,1.89,1.14.38,2.92-.33,4.33-2.17,4.29-4.05,8.64-2.82,13.63Z" transform="translate(-192 -364)"/><path class="cls-16" d="M401,381c-1.15-1-3.76,1.11-3.9-1.67-.09-2,1.74-2.66,3.24-3.31a22.48,22.48,0,0,1,9.58-2.1c1.19,0,3-.74,3.15,1.25.14,1.68-1.66,1.91-2.82,2.29-3.18,1.05-6.8.93-9.35,3.62Z" transform="translate(-192 -364)"/><path class="cls-17" d="M246.3,377.9c-1.92,0-2.65-.84-2-2.19,1.49-3.31,3.13-6.57,5.81-9.12a2.43,2.43,0,0,1,3.19-.27c1.23.92.53,2.08-.16,3C250.92,372.38,249.22,375.81,246.3,377.9Z" transform="translate(-192 -364)"/></svg>